<svg width="532" height="372" viewBox="0 0 532 372" fill="none" xmlns="http://www.w3.org/2000/svg">
<path d="M510.599 315.68C509.151 315.68 507.69 315.306 506.399 314.558L492.228 306.374C491.407 305.903 490.912 305.046 490.912 304.104C490.912 303.163 491.407 302.306 492.228 301.835L506.399 293.651C508.994 292.154 512.217 292.154 514.8 293.651L528.971 301.835C529.792 302.306 530.287 303.163 530.287 304.104C530.287 305.046 529.792 305.903 528.971 306.374L514.8 314.558C513.508 315.306 512.048 315.68 510.599 315.68ZM510.599 294.774C509.537 294.774 508.475 295.051 507.521 295.595L493.35 303.778C493.181 303.875 493.157 304.02 493.157 304.104C493.157 304.189 493.181 304.334 493.35 304.43L507.521 312.614C509.416 313.713 511.782 313.713 513.677 312.614L527.848 304.43C528.017 304.334 528.041 304.189 528.041 304.104C528.041 304.02 528.017 303.875 527.848 303.778L513.677 295.595C512.724 295.051 511.662 294.774 510.599 294.774Z" fill="url(#paint0_linear_435_50)"/>
<path d="M470.078 269.268C467.712 269.268 465.358 268.665 463.246 267.446L438.863 253.371C437.704 252.708 437.004 251.5 437.004 250.161C437.004 248.821 437.692 247.626 438.863 246.95L463.246 232.875C467.458 230.449 472.685 230.437 476.898 232.875L501.28 246.95C502.439 247.614 503.139 248.821 503.139 250.161C503.139 251.5 502.451 252.695 501.292 253.371L476.91 267.446C474.809 268.665 472.444 269.268 470.078 269.268ZM464.368 265.502C467.893 267.53 472.263 267.53 475.775 265.502L500.158 251.428C500.81 251.042 500.882 250.414 500.882 250.161C500.882 249.907 500.81 249.279 500.158 248.893L475.775 234.819C472.25 232.791 467.881 232.791 464.368 234.819L439.986 248.893C439.334 249.279 439.261 249.907 439.261 250.161C439.261 250.414 439.334 251.042 439.986 251.428L464.368 265.502Z" fill="url(#paint1_linear_435_50)"/>
<path d="M34.0616 291.43C31.6958 291.43 29.342 290.827 27.2297 289.608L2.859 275.521C1.70022 274.845 1.00012 273.65 1.00012 272.31C1.00012 270.97 1.68815 269.775 2.859 269.1L27.2417 255.025C31.4544 252.587 36.681 252.587 40.8936 255.025L65.2764 269.1C66.4352 269.763 67.1353 270.97 67.1353 272.31C67.1353 273.65 66.4472 274.845 65.2764 275.521L40.8936 289.595C38.7933 290.815 36.4275 291.418 34.0616 291.418V291.43ZM34.0616 255.46C32.0941 255.46 30.1145 255.967 28.3522 256.981L3.9695 271.055C3.31769 271.441 3.24526 272.069 3.24526 272.322C3.24526 272.576 3.31769 273.204 3.9695 273.59L28.3522 287.664C31.8769 289.692 36.2464 289.692 39.759 287.664L64.1417 273.59C64.8056 273.204 64.866 272.576 64.866 272.322C64.866 272.069 64.7935 271.441 64.1417 271.055L39.759 256.981C37.9967 255.967 36.0292 255.46 34.0496 255.46H34.0616Z" fill="url(#paint2_linear_435_50)"/>
<path opacity="0.6" d="M280.967 352.834L106.618 252.176C104.071 250.704 104.397 248.145 107.33 246.455L219.225 181.853C222.158 180.163 226.6 179.97 229.135 181.442L403.472 282.1C406.019 283.572 405.693 286.131 402.76 287.821L290.865 352.423C287.931 354.113 283.489 354.306 280.955 352.834H280.967Z" fill="#020230"/>
<path d="M284.95 371C282.91 371 280.955 370.578 279.47 369.708L80.4971 254.844C78.8676 253.903 77.9744 252.551 77.9744 251.03C77.9744 249.279 79.1935 247.578 81.3059 246.358L216.932 166.897C220.65 164.749 226.118 164.543 229.377 166.426L428.349 281.303C429.979 282.244 430.872 283.596 430.872 285.117C430.872 286.868 429.653 288.557 427.541 289.789L291.915 369.25C289.899 370.409 287.364 371.012 284.962 371.012L284.95 371ZM223.921 167.392C221.881 167.392 219.72 167.887 218.066 168.841L82.4405 248.302C81.0524 249.11 80.2316 250.124 80.2316 251.03C80.2316 251.935 80.992 252.526 81.6318 252.889L280.604 367.765C283.139 369.238 287.811 369.02 290.792 367.294L426.418 287.833C427.806 287.024 428.627 286.01 428.627 285.105C428.627 284.2 427.867 283.608 427.227 283.246L228.254 168.37C227.119 167.718 225.562 167.392 223.921 167.392Z" fill="url(#paint3_linear_435_50)"/>
<path d="M449.787 113.352L276.138 13.0929C274.943 12.4049 273.7 12.2601 272.589 12.586C272.589 12.586 272.589 12.586 272.577 12.586L269.367 13.7085L270.501 13.9741C270.042 14.5173 269.68 15.1812 269.439 15.9658L230.173 143.468C229.195 146.631 230.62 150.469 233.36 152.05L407.008 252.309C407.431 252.551 407.853 252.72 408.288 252.828L407.853 253.77L410.919 252.695C412.174 252.189 413.213 251.066 413.707 249.448L452.973 121.946C453.951 118.784 452.527 114.945 449.787 113.364V113.352Z" fill="url(#paint4_linear_435_50)"/>
<path d="M400.78 257.065L400.841 257.137L229.316 158.11C226.794 156.649 222.388 156.83 219.467 158.52L108.646 222.507L104.953 221.094L105.991 226.285C106.123 227.057 106.679 227.794 107.656 228.361L280.762 328.306C283.284 329.767 287.69 329.586 290.611 327.896L401.71 263.752C403.086 262.956 403.87 261.978 404.063 261.012L405.126 255.979L400.768 257.089L400.78 257.065Z" fill="url(#paint5_linear_435_50)"/>
<path d="M281.115 323.475L106.766 222.818L290.717 323.065C289.298 323.882 287.503 324.343 285.748 324.417C284.1 324.486 282.519 324.213 281.336 323.603L281.115 323.475ZM402.612 258.463L290.717 323.065L106.766 222.818C105.563 222.122 105.102 221.215 105.213 220.332C105.326 219.425 106.053 218.429 107.478 217.609L107.478 217.609L219.373 153.007C220.791 152.189 222.587 151.729 224.342 151.655C226.1 151.581 227.783 151.896 228.987 152.596L228.987 152.596L403.324 253.253C404.527 253.949 404.988 254.856 404.877 255.74C404.764 256.647 404.036 257.642 402.612 258.463L402.612 258.463Z" fill="url(#paint6_radial_435_50)" stroke="black" stroke-width="0.591346"/>
<path d="M402.76 257.367L290.865 321.969C287.932 323.659 283.49 323.852 280.955 322.379L106.618 221.722C105.749 221.227 105.242 220.588 105.037 219.912C104.699 221.082 105.194 222.253 106.618 223.074L280.955 323.731C283.502 325.204 287.932 325.011 290.865 323.321L402.76 258.719C404.691 257.596 405.464 256.111 405.053 254.808C404.788 255.713 404.039 256.631 402.76 257.367Z" fill="white"/>
<g opacity="0.4">
<path d="M189.785 206.742L183.895 203.339C183.424 203.061 183.484 202.59 184.028 202.276L190.98 198.269C191.523 197.955 192.356 197.919 192.827 198.196L198.718 201.6C199.188 201.878 199.128 202.349 198.585 202.663L191.632 206.67C191.089 206.984 190.256 207.02 189.785 206.742Z" fill="#06033E"/>
<path d="M198.874 211.993L192.984 208.589C192.513 208.312 192.573 207.841 193.116 207.527L200.069 203.52C200.612 203.206 201.445 203.17 201.916 203.447L207.806 206.851C208.277 207.129 208.217 207.6 207.674 207.913L200.721 211.921C200.178 212.235 199.345 212.271 198.874 211.993Z" fill="#06033E"/>
<path d="M207.964 217.244L202.073 213.84C201.603 213.562 201.663 213.092 202.206 212.778L209.159 208.77C209.702 208.457 210.535 208.42 211.006 208.698L216.896 212.102C217.367 212.379 217.306 212.85 216.763 213.164L209.811 217.172C209.267 217.485 208.435 217.522 207.964 217.244Z" fill="#06033E"/>
<path d="M220.529 212.911L214.639 209.507C214.168 209.229 214.228 208.758 214.772 208.444L220.602 205.077C221.145 204.763 221.978 204.727 222.449 205.004L228.339 208.408C228.81 208.686 228.749 209.157 228.206 209.47L222.376 212.838C221.833 213.152 221 213.188 220.529 212.911Z" fill="#06033E"/>
<path d="M229.619 218.149L223.728 214.745C223.257 214.468 223.318 213.997 223.861 213.683L229.691 210.315C230.234 210.002 231.067 209.965 231.538 210.243L237.428 213.647C237.899 213.925 237.839 214.395 237.295 214.709L231.465 218.077C230.922 218.391 230.089 218.427 229.619 218.149Z" fill="#06033E"/>
<path d="M238.707 223.4L232.817 219.996C232.346 219.718 232.407 219.248 232.95 218.934L238.78 215.566C239.323 215.252 240.156 215.216 240.627 215.494L246.517 218.898C246.988 219.175 246.927 219.646 246.384 219.96L240.554 223.328C240.011 223.641 239.178 223.678 238.707 223.4Z" fill="#06033E"/>
<path d="M247.797 228.651L241.907 225.247C241.436 224.969 241.496 224.498 242.039 224.185L247.87 220.817C248.413 220.503 249.246 220.467 249.716 220.744L255.607 224.148C256.078 224.426 256.017 224.897 255.474 225.211L249.644 228.578C249.101 228.892 248.268 228.928 247.797 228.651Z" fill="#06033E"/>
<path d="M256.886 233.901L250.996 230.498C250.525 230.22 250.585 229.749 251.128 229.435L256.958 226.068C257.502 225.754 258.334 225.718 258.805 225.995L264.696 229.399C265.166 229.677 265.106 230.148 264.563 230.461L258.733 233.829C258.19 234.143 257.357 234.179 256.886 233.901Z" fill="#06033E"/>
<path d="M265.975 239.14L260.085 235.736C259.614 235.459 259.675 234.988 260.218 234.674L266.048 231.306C266.591 230.992 267.424 230.956 267.895 231.234L273.785 234.638C274.256 234.915 274.196 235.386 273.652 235.7L267.822 239.068C267.279 239.382 266.446 239.418 265.975 239.14Z" fill="#06033E"/>
<path d="M275.064 244.391L269.174 240.987C268.703 240.709 268.764 240.239 269.307 239.925L275.137 236.557C275.68 236.243 276.513 236.207 276.984 236.485L282.874 239.889C283.345 240.166 283.285 240.637 282.741 240.951L276.911 244.318C276.368 244.632 275.535 244.668 275.064 244.391Z" fill="#06033E"/>
<path d="M284.154 249.642L278.264 246.238C277.793 245.96 277.853 245.489 278.396 245.175L284.226 241.808C284.77 241.494 285.603 241.458 286.073 241.735L291.964 245.139C292.435 245.417 292.374 245.888 291.831 246.201L286.001 249.569C285.458 249.883 284.625 249.919 284.154 249.642Z" fill="#06033E"/>
<path d="M293.243 254.892L287.352 251.488C286.882 251.211 286.942 250.74 287.485 250.426L293.315 247.058C293.859 246.745 294.691 246.708 295.162 246.986L301.053 250.39C301.523 250.668 301.463 251.138 300.92 251.452L295.09 254.82C294.547 255.134 293.714 255.17 293.243 254.892Z" fill="#06033E"/>
<path d="M302.332 260.131L296.441 256.727C295.971 256.449 296.031 255.979 296.574 255.665L302.404 252.297C302.947 251.983 303.78 251.947 304.251 252.225L310.141 255.629C310.612 255.906 310.552 256.377 310.009 256.691L304.179 260.059C303.635 260.372 302.803 260.409 302.332 260.131Z" fill="#06033E"/>
<path d="M233.928 210.424L228.037 207.02C227.566 206.743 227.627 206.272 228.17 205.958L234 202.59C234.543 202.276 235.376 202.24 235.847 202.518L241.737 205.922C242.208 206.199 242.148 206.67 241.605 206.984L235.774 210.352C235.231 210.665 234.398 210.702 233.928 210.424Z" fill="#06033E"/>
<path d="M224.693 205.089L218.803 201.685C218.332 201.407 218.392 200.937 218.936 200.623L224.766 197.255C225.309 196.941 226.142 196.905 226.613 197.183L232.503 200.586C232.974 200.864 232.913 201.335 232.37 201.649L226.54 205.016C225.997 205.33 225.164 205.366 224.693 205.089Z" fill="#06033E"/>
<path d="M215.46 199.754L202.785 192.439C202.315 192.161 202.375 191.69 202.918 191.377L208.748 188.009C209.292 187.695 210.124 187.659 210.595 187.936L223.269 195.251C223.74 195.529 223.68 196 223.137 196.313L217.306 199.681C216.763 199.995 215.93 200.031 215.46 199.754Z" fill="#06033E"/>
<path d="M221.917 193.272L211.633 187.333C211.162 187.055 211.223 186.584 211.766 186.271L217.596 182.903C218.139 182.589 218.972 182.553 219.443 182.831L229.727 188.769C230.198 189.047 230.138 189.518 229.594 189.832L223.764 193.199C223.221 193.513 222.388 193.549 221.917 193.272Z" fill="#06033E"/>
<path d="M243.017 215.663L237.127 212.259C236.656 211.981 236.716 211.51 237.259 211.197L243.09 207.829C243.633 207.515 244.466 207.479 244.936 207.756L250.827 211.16C251.298 211.438 251.237 211.909 250.694 212.223L244.864 215.59C244.321 215.904 243.488 215.94 243.017 215.663Z" fill="#06033E"/>
<path d="M252.106 220.913L246.215 217.51C245.745 217.232 245.805 216.761 246.348 216.447L252.178 213.08C252.722 212.766 253.554 212.73 254.025 213.007L259.916 216.411C260.386 216.689 260.326 217.159 259.783 217.473L253.953 220.841C253.41 221.155 252.577 221.191 252.106 220.913Z" fill="#06033E"/>
<path d="M261.196 226.164L255.305 222.76C254.834 222.483 254.895 222.012 255.438 221.698L261.268 218.33C261.811 218.016 262.644 217.98 263.115 218.258L269.005 221.662C269.476 221.939 269.416 222.41 268.872 222.724L263.042 226.092C262.499 226.406 261.666 226.442 261.196 226.164Z" fill="#06033E"/>
<path d="M270.284 231.415L264.394 228.011C263.923 227.733 263.984 227.263 264.527 226.949L270.357 223.581C270.9 223.267 271.733 223.231 272.204 223.509L278.094 226.913C278.565 227.19 278.505 227.661 277.961 227.975L272.131 231.343C271.588 231.656 270.755 231.693 270.284 231.415Z" fill="#06033E"/>
<path d="M279.374 236.666L273.484 233.262C273.013 232.984 273.073 232.513 273.616 232.2L279.446 228.832C279.99 228.518 280.823 228.482 281.293 228.759L287.184 232.163C287.654 232.441 287.594 232.912 287.051 233.226L281.221 236.593C280.678 236.907 279.845 236.943 279.374 236.666Z" fill="#06033E"/>
<path d="M288.463 241.904L282.572 238.5C282.102 238.223 282.162 237.752 282.705 237.438L288.535 234.07C289.078 233.757 289.911 233.72 290.382 233.998L296.273 237.402C296.743 237.68 296.683 238.15 296.14 238.464L290.31 241.832C289.767 242.146 288.934 242.182 288.463 241.904Z" fill="#06033E"/>
<path d="M297.552 247.155L291.661 243.751C291.191 243.473 291.251 243.003 291.794 242.689L297.624 239.321C298.167 239.007 299 238.971 299.471 239.249L305.361 242.653C305.832 242.93 305.772 243.401 305.229 243.715L299.399 247.083C298.855 247.396 298.022 247.433 297.552 247.155Z" fill="#06033E"/>
<path d="M306.641 252.406L300.751 249.002C300.28 248.724 300.34 248.253 300.884 247.94L306.714 244.572C307.257 244.258 308.09 244.222 308.561 244.5L314.451 247.903C314.922 248.181 314.861 248.652 314.318 248.966L308.488 252.333C307.945 252.647 307.112 252.683 306.641 252.406Z" fill="#06033E"/>
<path d="M315.73 257.657L309.84 254.253C309.369 253.975 309.429 253.504 309.973 253.19L315.803 249.823C316.346 249.509 317.179 249.473 317.649 249.75L323.54 253.154C324.011 253.432 323.95 253.903 323.407 254.216L317.577 257.584C317.034 257.898 316.201 257.934 315.73 257.657Z" fill="#06033E"/>
<path d="M331.893 266.975L319.05 259.564C318.579 259.286 318.64 258.815 319.183 258.501L325.013 255.134C325.556 254.82 326.389 254.784 326.86 255.061L339.703 262.473C340.174 262.75 340.113 263.221 339.57 263.535L333.74 266.903C333.197 267.216 332.364 267.253 331.893 266.975Z" fill="#06033E"/>
<path d="M349.588 256.763L338.749 250.511C338.278 250.233 338.339 249.762 338.882 249.448L344.712 246.081C345.255 245.767 346.088 245.731 346.559 246.008L357.398 252.261C357.869 252.539 357.809 253.009 357.265 253.323L351.435 256.691C350.892 257.005 350.059 257.041 349.588 256.763Z" fill="#06033E"/>
<path d="M258.926 214.637L253.035 211.233C252.565 210.955 252.625 210.484 253.168 210.171L258.998 206.803C259.541 206.489 260.374 206.453 260.845 206.73L266.735 210.134C267.206 210.412 267.146 210.883 266.603 211.197L260.773 214.564C260.229 214.878 259.397 214.914 258.926 214.637Z" fill="#06033E"/>
<path d="M249.619 209.265L243.729 205.861C243.258 205.584 243.318 205.113 243.862 204.799L249.692 201.431C250.235 201.118 251.068 201.081 251.538 201.359L257.429 204.763C257.9 205.041 257.839 205.511 257.296 205.825L251.466 209.193C250.923 209.507 250.09 209.543 249.619 209.265Z" fill="#06033E"/>
<path d="M240.301 203.882L234.411 200.478C233.94 200.2 234 199.729 234.543 199.416L240.373 196.048C240.917 195.734 241.75 195.698 242.22 195.975L248.111 199.379C248.582 199.657 248.521 200.128 247.978 200.442L242.148 203.809C241.605 204.123 240.772 204.159 240.301 203.882Z" fill="#06033E"/>
<path d="M230.982 198.51L225.092 195.106C224.621 194.829 224.681 194.358 225.224 194.044L231.055 190.676C231.598 190.363 232.431 190.326 232.901 190.604L238.792 194.008C239.263 194.286 239.202 194.756 238.659 195.07L232.829 198.438C232.286 198.752 231.453 198.788 230.982 198.51Z" fill="#06033E"/>
<path d="M268.015 219.887L262.125 216.484C261.654 216.206 261.714 215.735 262.258 215.421L268.088 212.054C268.631 211.74 269.464 211.704 269.934 211.981L275.825 215.385C276.296 215.663 276.235 216.133 275.692 216.447L269.862 219.815C269.319 220.129 268.486 220.165 268.015 219.887Z" fill="#06033E"/>
<path d="M277.104 225.138L271.214 221.734C270.743 221.457 270.803 220.986 271.346 220.672L277.177 217.304C277.72 216.99 278.553 216.954 279.023 217.232L284.914 220.636C285.385 220.913 285.324 221.384 284.781 221.698L278.951 225.066C278.408 225.38 277.575 225.416 277.104 225.138Z" fill="#06033E"/>
<path d="M286.206 230.389L280.315 226.985C279.844 226.707 279.905 226.237 280.448 225.923L286.278 222.555C286.821 222.241 287.654 222.205 288.125 222.483L294.015 225.887C294.486 226.164 294.426 226.635 293.883 226.949L288.052 230.316C287.509 230.63 286.676 230.667 286.206 230.389Z" fill="#06033E"/>
<path d="M295.295 235.628L289.405 232.224C288.934 231.946 288.994 231.475 289.537 231.161L295.367 227.794C295.911 227.48 296.744 227.444 297.214 227.721L303.105 231.125C303.576 231.403 303.515 231.874 302.972 232.187L297.142 235.555C296.599 235.869 295.766 235.905 295.295 235.628Z" fill="#06033E"/>
<path d="M304.384 240.878L298.494 237.474C298.023 237.197 298.083 236.726 298.626 236.412L304.457 233.044C305 232.731 305.833 232.694 306.303 232.972L312.194 236.376C312.665 236.654 312.604 237.124 312.061 237.438L306.231 240.806C305.688 241.12 304.855 241.156 304.384 240.878Z" fill="#06033E"/>
<path d="M313.474 246.129L307.583 242.725C307.112 242.447 307.173 241.977 307.716 241.663L313.546 238.295C314.089 237.981 314.922 237.945 315.393 238.223L321.283 241.627C321.754 241.904 321.694 242.375 321.151 242.689L315.32 246.057C314.777 246.37 313.944 246.407 313.474 246.129Z" fill="#06033E"/>
<path d="M322.562 251.38L316.672 247.976C316.201 247.698 316.262 247.227 316.805 246.914L322.635 243.546C323.178 243.232 324.011 243.196 324.482 243.473L330.372 246.877C330.843 247.155 330.783 247.626 330.239 247.94L324.409 251.307C323.866 251.621 323.033 251.657 322.562 251.38Z" fill="#06033E"/>
<path d="M331.651 256.618L325.761 253.215C325.29 252.937 325.351 252.466 325.894 252.152L331.724 248.785C332.267 248.471 333.1 248.435 333.571 248.712L339.461 252.116C339.932 252.394 339.872 252.864 339.328 253.178L333.498 256.546C332.955 256.86 332.122 256.896 331.651 256.618Z" fill="#06033E"/>
<path d="M340.741 261.869L334.85 258.465C334.38 258.188 334.44 257.717 334.983 257.403L340.813 254.035C341.357 253.721 342.189 253.685 342.66 253.963L348.551 257.367C349.021 257.644 348.961 258.115 348.418 258.429L342.588 261.797C342.045 262.111 341.212 262.147 340.741 261.869Z" fill="#06033E"/>
<path d="M254.146 201.661L248.255 198.257C247.785 197.979 247.845 197.508 248.388 197.195L254.218 193.827C254.761 193.513 255.594 193.477 256.065 193.754L261.955 197.158C262.426 197.436 262.366 197.907 261.823 198.221L255.993 201.588C255.449 201.902 254.617 201.938 254.146 201.661Z" fill="#06033E"/>
<path d="M245.105 196.434L239.215 193.03C238.744 192.753 238.804 192.282 239.348 191.968L245.178 188.6C245.721 188.286 246.554 188.25 247.024 188.528L252.915 191.932C253.386 192.209 253.325 192.68 252.782 192.994L246.952 196.362C246.409 196.676 245.576 196.712 245.105 196.434Z" fill="#06033E"/>
<path d="M236.052 191.22L230.162 187.816C229.691 187.538 229.751 187.067 230.294 186.753L236.125 183.386C236.668 183.072 237.501 183.036 237.971 183.313L243.862 186.717C244.333 186.995 244.272 187.466 243.729 187.779L237.899 191.147C237.356 191.461 236.523 191.497 236.052 191.22Z" fill="#06033E"/>
<path d="M227.011 185.993L221.12 182.589C220.65 182.311 220.71 181.841 221.253 181.527L227.083 178.159C227.626 177.845 228.459 177.809 228.93 178.087L234.82 181.491C235.291 181.768 235.231 182.239 234.688 182.553L228.858 185.921C228.314 186.234 227.482 186.271 227.011 185.993Z" fill="#06033E"/>
<path d="M236.317 180.622L230.427 177.218C229.956 176.94 230.016 176.469 230.56 176.155L232.491 175.045C233.034 174.731 233.867 174.695 234.338 174.973L240.228 178.376C240.699 178.654 240.639 179.125 240.095 179.439L238.164 180.549C237.621 180.863 236.788 180.899 236.317 180.622Z" fill="#06033E"/>
<path d="M248.11 187.442L242.22 184.038C241.749 183.76 241.809 183.289 242.353 182.975L244.284 181.865C244.827 181.551 245.66 181.515 246.131 181.792L252.021 185.196C252.492 185.474 252.432 185.945 251.888 186.259L249.957 187.369C249.414 187.683 248.581 187.719 248.11 187.442Z" fill="#06033E"/>
<path d="M257.128 192.644L251.237 189.24C250.766 188.962 250.827 188.492 251.37 188.178L253.301 187.067C253.844 186.753 254.677 186.717 255.148 186.995L261.039 190.399C261.509 190.676 261.449 191.147 260.906 191.461L258.974 192.572C258.431 192.885 257.598 192.922 257.128 192.644Z" fill="#06033E"/>
<path d="M266.132 197.846L260.241 194.442C259.771 194.165 259.831 193.694 260.374 193.38L262.306 192.27C262.849 191.956 263.682 191.92 264.152 192.197L270.043 195.601C270.514 195.879 270.453 196.35 269.91 196.663L267.979 197.774C267.436 198.088 266.603 198.124 266.132 197.846Z" fill="#06033E"/>
<path d="M275.137 203.037L269.246 199.633C268.775 199.355 268.836 198.884 269.379 198.571L271.31 197.46C271.854 197.146 272.686 197.11 273.157 197.388L279.048 200.792C279.518 201.069 279.458 201.54 278.915 201.854L276.984 202.964C276.44 203.278 275.607 203.314 275.137 203.037Z" fill="#06033E"/>
<path d="M325.423 232.067L319.533 228.663C319.062 228.385 319.122 227.914 319.666 227.601L321.597 226.49C322.14 226.176 322.973 226.14 323.444 226.418L329.334 229.822C329.805 230.099 329.744 230.57 329.201 230.884L327.27 231.994C326.727 232.308 325.894 232.344 325.423 232.067Z" fill="#06033E"/>
<path d="M334.428 237.269L328.538 233.865C328.067 233.588 328.127 233.117 328.67 232.803L330.602 231.693C331.145 231.379 331.978 231.342 332.449 231.62L338.339 235.024C338.81 235.302 338.749 235.772 338.206 236.086L336.275 237.197C335.732 237.511 334.899 237.547 334.428 237.269Z" fill="#06033E"/>
<path d="M343.433 242.472L337.542 239.068C337.072 238.79 337.132 238.319 337.675 238.005L339.606 236.895C340.15 236.581 340.982 236.545 341.453 236.823L347.344 240.226C347.814 240.504 347.754 240.975 347.211 241.289L345.28 242.399C344.736 242.713 343.904 242.749 343.433 242.472Z" fill="#06033E"/>
<path d="M352.437 247.674L346.547 244.27C346.076 243.993 346.136 243.522 346.679 243.208L348.611 242.097C349.154 241.784 349.987 241.747 350.458 242.025L356.348 245.429C356.819 245.707 356.758 246.177 356.215 246.491L354.284 247.602C353.741 247.915 352.908 247.952 352.437 247.674Z" fill="#06033E"/>
<path d="M263.235 206.911L257.345 203.508C256.874 203.23 256.935 202.759 257.478 202.445L263.308 199.078C263.851 198.764 264.684 198.728 265.155 199.005L271.045 202.409C271.516 202.687 271.456 203.158 270.912 203.471L265.082 206.839C264.539 207.153 263.706 207.189 263.235 206.911Z" fill="#06033E"/>
<path d="M272.324 212.162L266.434 208.758C265.963 208.481 266.023 208.01 266.567 207.696L272.397 204.328C272.94 204.015 273.773 203.978 274.244 204.256L280.134 207.66C280.605 207.937 280.544 208.408 280.001 208.722L274.171 212.09C273.628 212.404 272.795 212.44 272.324 212.162Z" fill="#06033E"/>
<path d="M281.414 217.401L275.523 213.997C275.053 213.719 275.113 213.249 275.656 212.935L281.486 209.567C282.029 209.253 282.862 209.217 283.333 209.495L289.224 212.899C289.694 213.176 289.634 213.647 289.091 213.961L283.261 217.328C282.717 217.642 281.885 217.679 281.414 217.401Z" fill="#06033E"/>
<path d="M290.503 222.652L284.612 219.248C284.142 218.97 284.202 218.499 284.745 218.185L290.575 214.818C291.118 214.504 291.951 214.468 292.422 214.745L298.313 218.149C298.783 218.427 298.723 218.898 298.18 219.211L292.35 222.579C291.806 222.893 290.974 222.929 290.503 222.652Z" fill="#06033E"/>
<path d="M299.592 227.902L293.702 224.498C293.231 224.221 293.291 223.75 293.835 223.436L299.665 220.068C300.208 219.755 301.041 219.718 301.512 219.996L307.402 223.4C307.873 223.678 307.812 224.148 307.269 224.462L301.439 227.83C300.896 228.144 300.063 228.18 299.592 227.902Z" fill="#06033E"/>
<path d="M308.681 233.153L302.791 229.749C302.32 229.472 302.38 229.001 302.923 228.687L308.754 225.319C309.297 225.005 310.13 224.969 310.6 225.247L316.491 228.651C316.962 228.928 316.901 229.399 316.358 229.713L310.528 233.081C309.985 233.394 309.152 233.431 308.681 233.153Z" fill="#06033E"/>
<path d="M317.77 238.392L311.88 234.988C311.409 234.71 311.469 234.239 312.012 233.926L317.843 230.558C318.386 230.244 319.219 230.208 319.689 230.485L325.58 233.889C326.051 234.167 325.99 234.638 325.447 234.952L319.617 238.319C319.074 238.633 318.241 238.669 317.77 238.392Z" fill="#06033E"/>
<path d="M326.86 243.642L320.969 240.239C320.498 239.961 320.559 239.49 321.102 239.176L326.932 235.809C327.475 235.495 328.308 235.459 328.779 235.736L334.669 239.14C335.14 239.418 335.08 239.888 334.537 240.202L328.706 243.57C328.163 243.884 327.33 243.92 326.86 243.642Z" fill="#06033E"/>
<path d="M335.948 248.893L330.058 245.489C329.587 245.212 329.648 244.741 330.191 244.427L336.021 241.059C336.564 240.746 337.397 240.709 337.868 240.987L343.758 244.391C344.229 244.668 344.169 245.139 343.625 245.453L337.795 248.821C337.252 249.135 336.419 249.171 335.948 248.893Z" fill="#06033E"/>
<path d="M211.271 207.551L193.937 197.545C193.467 197.267 193.527 196.796 194.07 196.482L199.9 193.115C200.443 192.801 201.276 192.765 201.747 193.042L219.081 203.049C219.551 203.326 219.491 203.797 218.948 204.111L213.118 207.479C212.574 207.793 211.742 207.829 211.271 207.551Z" fill="#06033E"/>
<path d="M322.937 272.033L305.603 262.026C305.133 261.748 305.193 261.278 305.736 260.964L311.566 257.596C312.109 257.282 312.942 257.246 313.413 257.524L330.746 267.53C331.217 267.808 331.157 268.279 330.614 268.593L324.784 271.96C324.24 272.274 323.407 272.31 322.937 272.033Z" fill="#06033E"/>
<path d="M286.58 262.63L280.689 259.226C280.218 258.948 280.279 258.477 280.822 258.163L287.775 254.156C288.318 253.842 289.151 253.806 289.621 254.084L295.512 257.488C295.983 257.765 295.922 258.236 295.379 258.55L288.426 262.557C287.883 262.871 287.05 262.907 286.58 262.63Z" fill="#06033E"/>
<path d="M220.577 224.523L211.162 219.091C210.691 218.813 210.752 218.342 211.295 218.029L218.248 214.021C218.791 213.707 219.624 213.671 220.094 213.949L229.51 219.38C229.98 219.658 229.92 220.129 229.377 220.443L222.424 224.45C221.881 224.764 221.048 224.8 220.577 224.523Z" fill="#06033E"/>
<path d="M277.829 257.572L268.414 252.14C267.943 251.863 268.003 251.392 268.546 251.078L275.499 247.071C276.042 246.757 276.875 246.721 277.346 246.998L286.761 252.43C287.232 252.708 287.171 253.178 286.628 253.492L279.676 257.5C279.132 257.813 278.299 257.85 277.829 257.572Z" fill="#06033E"/>
<path d="M233.687 232.091L224.272 226.659C223.801 226.381 223.861 225.911 224.404 225.597L231.357 221.589C231.9 221.276 232.733 221.239 233.204 221.517L242.619 226.949C243.09 227.226 243.029 227.697 242.486 228.011L235.533 232.018C234.99 232.332 234.157 232.368 233.687 232.091Z" fill="#06033E"/>
<path d="M233.264 221.541L274.183 245.175C274.69 245.465 274.69 245.948 274.183 246.238L267.098 250.33C266.591 250.619 265.77 250.619 265.263 250.33L224.344 226.707L233.264 221.553V221.541Z" fill="#06033E"/>
<path d="M311.988 272.153L318.543 275.944C318.929 276.173 318.881 276.559 318.434 276.813L315.598 278.454C315.151 278.708 314.475 278.744 314.089 278.515L307.534 274.724C307.148 274.495 307.196 274.109 307.643 273.855L310.48 272.214C310.926 271.96 311.602 271.924 311.988 272.153Z" fill="#06033E"/>
<path d="M302.827 266.854L309.381 270.645C309.767 270.874 309.719 271.26 309.272 271.514L306.436 273.155C305.989 273.409 305.313 273.445 304.927 273.216L298.373 269.425C297.986 269.196 298.035 268.81 298.481 268.556L301.318 266.915C301.764 266.661 302.44 266.625 302.827 266.854Z" fill="#06033E"/>
<path d="M293.738 261.604L300.292 265.394C300.679 265.623 300.63 266.009 300.184 266.263L297.347 267.905C296.9 268.158 296.224 268.194 295.838 267.965L289.284 264.175C288.898 263.945 288.946 263.559 289.392 263.306L292.229 261.664C292.676 261.41 293.352 261.374 293.738 261.604Z" fill="#06033E"/>
<path d="M307.848 263.957L314.403 267.748C314.789 267.977 314.741 268.363 314.294 268.617L311.458 270.258C311.011 270.512 310.335 270.548 309.949 270.319L303.394 266.528C303.008 266.299 303.056 265.913 303.503 265.659L306.34 264.018C306.786 263.764 307.462 263.728 307.848 263.957Z" fill="#06033E"/>
</g>
<g opacity="0.4">
<path d="M189.785 206.742L183.895 203.339C183.424 203.061 183.484 202.59 184.028 202.276L190.98 198.269C191.523 197.955 192.356 197.919 192.827 198.196L198.718 201.6C199.188 201.878 199.128 202.349 198.585 202.663L191.632 206.67C191.089 206.984 190.256 207.02 189.785 206.742Z" fill="#06033E"/>
<path d="M198.874 211.993L192.984 208.589C192.513 208.312 192.573 207.841 193.116 207.527L200.069 203.52C200.612 203.206 201.445 203.17 201.916 203.447L207.806 206.851C208.277 207.129 208.217 207.6 207.674 207.913L200.721 211.921C200.178 212.235 199.345 212.271 198.874 211.993Z" fill="#06033E"/>
<path d="M207.964 217.244L202.073 213.84C201.603 213.562 201.663 213.092 202.206 212.778L209.159 208.77C209.702 208.457 210.535 208.42 211.006 208.698L216.896 212.102C217.367 212.379 217.306 212.85 216.763 213.164L209.811 217.172C209.267 217.485 208.435 217.522 207.964 217.244Z" fill="#06033E"/>
<path d="M220.529 212.911L214.639 209.507C214.168 209.229 214.228 208.758 214.772 208.444L220.602 205.077C221.145 204.763 221.978 204.727 222.449 205.004L228.339 208.408C228.81 208.686 228.749 209.157 228.206 209.47L222.376 212.838C221.833 213.152 221 213.188 220.529 212.911Z" fill="#06033E"/>
<path d="M229.619 218.149L223.728 214.745C223.257 214.468 223.318 213.997 223.861 213.683L229.691 210.315C230.234 210.002 231.067 209.965 231.538 210.243L237.428 213.647C237.899 213.925 237.839 214.395 237.295 214.709L231.465 218.077C230.922 218.391 230.089 218.427 229.619 218.149Z" fill="#06033E"/>
<path d="M238.707 223.4L232.817 219.996C232.346 219.718 232.407 219.248 232.95 218.934L238.78 215.566C239.323 215.252 240.156 215.216 240.627 215.494L246.517 218.898C246.988 219.175 246.927 219.646 246.384 219.96L240.554 223.328C240.011 223.641 239.178 223.678 238.707 223.4Z" fill="#06033E"/>
<path d="M247.797 228.651L241.907 225.247C241.436 224.969 241.496 224.498 242.039 224.185L247.87 220.817C248.413 220.503 249.246 220.467 249.716 220.744L255.607 224.148C256.078 224.426 256.017 224.897 255.474 225.211L249.644 228.578C249.101 228.892 248.268 228.928 247.797 228.651Z" fill="#06033E"/>
<path d="M256.886 233.901L250.996 230.498C250.525 230.22 250.585 229.749 251.128 229.435L256.958 226.068C257.502 225.754 258.334 225.718 258.805 225.995L264.696 229.399C265.166 229.677 265.106 230.148 264.563 230.461L258.733 233.829C258.19 234.143 257.357 234.179 256.886 233.901Z" fill="#06033E"/>
<path d="M265.975 239.14L260.085 235.736C259.614 235.459 259.675 234.988 260.218 234.674L266.048 231.306C266.591 230.992 267.424 230.956 267.895 231.234L273.785 234.638C274.256 234.915 274.196 235.386 273.652 235.7L267.822 239.068C267.279 239.382 266.446 239.418 265.975 239.14Z" fill="#06033E"/>
<path d="M275.064 244.391L269.174 240.987C268.703 240.709 268.764 240.239 269.307 239.925L275.137 236.557C275.68 236.243 276.513 236.207 276.984 236.485L282.874 239.889C283.345 240.166 283.285 240.637 282.741 240.951L276.911 244.318C276.368 244.632 275.535 244.668 275.064 244.391Z" fill="#06033E"/>
<path d="M284.154 249.642L278.264 246.238C277.793 245.96 277.853 245.489 278.396 245.175L284.226 241.808C284.77 241.494 285.603 241.458 286.073 241.735L291.964 245.139C292.435 245.417 292.374 245.888 291.831 246.201L286.001 249.569C285.458 249.883 284.625 249.919 284.154 249.642Z" fill="#06033E"/>
<path d="M293.243 254.892L287.352 251.488C286.882 251.211 286.942 250.74 287.485 250.426L293.315 247.058C293.859 246.745 294.691 246.708 295.162 246.986L301.053 250.39C301.523 250.668 301.463 251.138 300.92 251.452L295.09 254.82C294.547 255.134 293.714 255.17 293.243 254.892Z" fill="#06033E"/>
<path d="M302.332 260.131L296.441 256.727C295.971 256.449 296.031 255.979 296.574 255.665L302.404 252.297C302.947 251.983 303.78 251.947 304.251 252.225L310.141 255.629C310.612 255.906 310.552 256.377 310.009 256.691L304.179 260.059C303.635 260.372 302.803 260.409 302.332 260.131Z" fill="#06033E"/>
<path d="M233.928 210.424L228.037 207.02C227.566 206.743 227.627 206.272 228.17 205.958L234 202.59C234.543 202.276 235.376 202.24 235.847 202.518L241.737 205.922C242.208 206.199 242.148 206.67 241.605 206.984L235.774 210.352C235.231 210.665 234.398 210.702 233.928 210.424Z" fill="#06033E"/>
<path d="M224.693 205.089L218.803 201.685C218.332 201.407 218.392 200.937 218.936 200.623L224.766 197.255C225.309 196.941 226.142 196.905 226.613 197.183L232.503 200.586C232.974 200.864 232.913 201.335 232.37 201.649L226.54 205.016C225.997 205.33 225.164 205.366 224.693 205.089Z" fill="#06033E"/>
<path d="M215.46 199.754L202.785 192.439C202.315 192.161 202.375 191.69 202.918 191.377L208.748 188.009C209.292 187.695 210.124 187.659 210.595 187.936L223.269 195.251C223.74 195.529 223.68 196 223.137 196.313L217.306 199.681C216.763 199.995 215.93 200.031 215.46 199.754Z" fill="#06033E"/>
<path d="M221.917 193.272L211.633 187.333C211.162 187.055 211.223 186.584 211.766 186.271L217.596 182.903C218.139 182.589 218.972 182.553 219.443 182.831L229.727 188.769C230.198 189.047 230.138 189.518 229.594 189.832L223.764 193.199C223.221 193.513 222.388 193.549 221.917 193.272Z" fill="#06033E"/>
<path d="M243.017 215.663L237.127 212.259C236.656 211.981 236.716 211.51 237.259 211.197L243.09 207.829C243.633 207.515 244.466 207.479 244.936 207.756L250.827 211.16C251.298 211.438 251.237 211.909 250.694 212.223L244.864 215.59C244.321 215.904 243.488 215.94 243.017 215.663Z" fill="#06033E"/>
<path d="M252.106 220.913L246.215 217.51C245.745 217.232 245.805 216.761 246.348 216.447L252.178 213.08C252.722 212.766 253.554 212.73 254.025 213.007L259.916 216.411C260.386 216.689 260.326 217.159 259.783 217.473L253.953 220.841C253.41 221.155 252.577 221.191 252.106 220.913Z" fill="#06033E"/>
<path d="M261.196 226.164L255.305 222.76C254.834 222.483 254.895 222.012 255.438 221.698L261.268 218.33C261.811 218.016 262.644 217.98 263.115 218.258L269.005 221.662C269.476 221.939 269.416 222.41 268.872 222.724L263.042 226.092C262.499 226.406 261.666 226.442 261.196 226.164Z" fill="#06033E"/>
<path d="M270.284 231.415L264.394 228.011C263.923 227.733 263.984 227.263 264.527 226.949L270.357 223.581C270.9 223.267 271.733 223.231 272.204 223.509L278.094 226.913C278.565 227.19 278.505 227.661 277.961 227.975L272.131 231.343C271.588 231.656 270.755 231.693 270.284 231.415Z" fill="#06033E"/>
<path d="M279.374 236.666L273.484 233.262C273.013 232.984 273.073 232.513 273.616 232.2L279.446 228.832C279.99 228.518 280.823 228.482 281.293 228.759L287.184 232.163C287.654 232.441 287.594 232.912 287.051 233.226L281.221 236.593C280.678 236.907 279.845 236.943 279.374 236.666Z" fill="#06033E"/>
<path d="M288.463 241.904L282.572 238.5C282.102 238.223 282.162 237.752 282.705 237.438L288.535 234.07C289.078 233.757 289.911 233.72 290.382 233.998L296.273 237.402C296.743 237.68 296.683 238.15 296.14 238.464L290.31 241.832C289.767 242.146 288.934 242.182 288.463 241.904Z" fill="#06033E"/>
<path d="M297.552 247.155L291.661 243.751C291.191 243.473 291.251 243.003 291.794 242.689L297.624 239.321C298.167 239.007 299 238.971 299.471 239.249L305.361 242.653C305.832 242.93 305.772 243.401 305.229 243.715L299.399 247.083C298.855 247.396 298.022 247.433 297.552 247.155Z" fill="#06033E"/>
<path d="M306.641 252.406L300.751 249.002C300.28 248.724 300.34 248.253 300.884 247.94L306.714 244.572C307.257 244.258 308.09 244.222 308.561 244.5L314.451 247.903C314.922 248.181 314.861 248.652 314.318 248.966L308.488 252.333C307.945 252.647 307.112 252.683 306.641 252.406Z" fill="#06033E"/>
<path d="M315.73 257.657L309.84 254.253C309.369 253.975 309.429 253.504 309.973 253.19L315.803 249.823C316.346 249.509 317.179 249.473 317.649 249.75L323.54 253.154C324.011 253.432 323.95 253.903 323.407 254.216L317.577 257.584C317.034 257.898 316.201 257.934 315.73 257.657Z" fill="#06033E"/>
<path d="M331.893 266.975L319.05 259.564C318.579 259.286 318.64 258.815 319.183 258.501L325.013 255.134C325.556 254.82 326.389 254.784 326.86 255.061L339.703 262.473C340.174 262.75 340.113 263.221 339.57 263.535L333.74 266.903C333.197 267.216 332.364 267.253 331.893 266.975Z" fill="#06033E"/>
<path d="M349.588 256.763L338.749 250.511C338.278 250.233 338.339 249.762 338.882 249.448L344.712 246.081C345.255 245.767 346.088 245.731 346.559 246.008L357.398 252.261C357.869 252.539 357.809 253.009 357.265 253.323L351.435 256.691C350.892 257.005 350.059 257.041 349.588 256.763Z" fill="#06033E"/>
<path d="M258.926 214.637L253.035 211.233C252.565 210.955 252.625 210.484 253.168 210.171L258.998 206.803C259.541 206.489 260.374 206.453 260.845 206.73L266.735 210.134C267.206 210.412 267.146 210.883 266.603 211.197L260.773 214.564C260.229 214.878 259.397 214.914 258.926 214.637Z" fill="#06033E"/>
<path d="M249.619 209.265L243.729 205.861C243.258 205.584 243.318 205.113 243.862 204.799L249.692 201.431C250.235 201.118 251.068 201.081 251.538 201.359L257.429 204.763C257.9 205.041 257.839 205.511 257.296 205.825L251.466 209.193C250.923 209.507 250.09 209.543 249.619 209.265Z" fill="#06033E"/>
<path d="M240.301 203.882L234.411 200.478C233.94 200.2 234 199.729 234.543 199.416L240.373 196.048C240.917 195.734 241.75 195.698 242.22 195.975L248.111 199.379C248.582 199.657 248.521 200.128 247.978 200.442L242.148 203.809C241.605 204.123 240.772 204.159 240.301 203.882Z" fill="#06033E"/>
<path d="M230.982 198.51L225.092 195.106C224.621 194.829 224.681 194.358 225.224 194.044L231.055 190.676C231.598 190.363 232.431 190.326 232.901 190.604L238.792 194.008C239.263 194.286 239.202 194.756 238.659 195.07L232.829 198.438C232.286 198.752 231.453 198.788 230.982 198.51Z" fill="#06033E"/>
<path d="M268.015 219.887L262.125 216.484C261.654 216.206 261.714 215.735 262.258 215.421L268.088 212.054C268.631 211.74 269.464 211.704 269.934 211.981L275.825 215.385C276.296 215.663 276.235 216.133 275.692 216.447L269.862 219.815C269.319 220.129 268.486 220.165 268.015 219.887Z" fill="#06033E"/>
<path d="M277.104 225.138L271.214 221.734C270.743 221.457 270.803 220.986 271.346 220.672L277.177 217.304C277.72 216.99 278.553 216.954 279.023 217.232L284.914 220.636C285.385 220.913 285.324 221.384 284.781 221.698L278.951 225.066C278.408 225.38 277.575 225.416 277.104 225.138Z" fill="#06033E"/>
<path d="M286.206 230.389L280.315 226.985C279.844 226.707 279.905 226.237 280.448 225.923L286.278 222.555C286.821 222.241 287.654 222.205 288.125 222.483L294.015 225.887C294.486 226.164 294.426 226.635 293.883 226.949L288.052 230.316C287.509 230.63 286.676 230.667 286.206 230.389Z" fill="#06033E"/>
<path d="M295.295 235.628L289.405 232.224C288.934 231.946 288.994 231.475 289.537 231.161L295.367 227.794C295.911 227.48 296.744 227.444 297.214 227.721L303.105 231.125C303.576 231.403 303.515 231.874 302.972 232.187L297.142 235.555C296.599 235.869 295.766 235.905 295.295 235.628Z" fill="#06033E"/>
<path d="M304.384 240.878L298.494 237.474C298.023 237.197 298.083 236.726 298.626 236.412L304.457 233.044C305 232.731 305.833 232.694 306.303 232.972L312.194 236.376C312.665 236.654 312.604 237.124 312.061 237.438L306.231 240.806C305.688 241.12 304.855 241.156 304.384 240.878Z" fill="#06033E"/>
<path d="M313.474 246.129L307.583 242.725C307.112 242.447 307.173 241.977 307.716 241.663L313.546 238.295C314.089 237.981 314.922 237.945 315.393 238.223L321.283 241.627C321.754 241.904 321.694 242.375 321.151 242.689L315.32 246.057C314.777 246.37 313.944 246.407 313.474 246.129Z" fill="#06033E"/>
<path d="M322.562 251.38L316.672 247.976C316.201 247.698 316.262 247.227 316.805 246.914L322.635 243.546C323.178 243.232 324.011 243.196 324.482 243.473L330.372 246.877C330.843 247.155 330.783 247.626 330.239 247.94L324.409 251.307C323.866 251.621 323.033 251.657 322.562 251.38Z" fill="#06033E"/>
<path d="M331.651 256.618L325.761 253.215C325.29 252.937 325.351 252.466 325.894 252.152L331.724 248.785C332.267 248.471 333.1 248.435 333.571 248.712L339.461 252.116C339.932 252.394 339.872 252.864 339.328 253.178L333.498 256.546C332.955 256.86 332.122 256.896 331.651 256.618Z" fill="#06033E"/>
<path d="M340.741 261.869L334.85 258.465C334.38 258.188 334.44 257.717 334.983 257.403L340.813 254.035C341.357 253.721 342.189 253.685 342.66 253.963L348.551 257.367C349.021 257.644 348.961 258.115 348.418 258.429L342.588 261.797C342.045 262.111 341.212 262.147 340.741 261.869Z" fill="#06033E"/>
<path d="M254.146 201.661L248.255 198.257C247.785 197.979 247.845 197.508 248.388 197.195L254.218 193.827C254.761 193.513 255.594 193.477 256.065 193.754L261.955 197.158C262.426 197.436 262.366 197.907 261.823 198.221L255.993 201.588C255.449 201.902 254.617 201.938 254.146 201.661Z" fill="#06033E"/>
<path d="M245.105 196.434L239.215 193.03C238.744 192.753 238.804 192.282 239.348 191.968L245.178 188.6C245.721 188.286 246.554 188.25 247.024 188.528L252.915 191.932C253.386 192.209 253.325 192.68 252.782 192.994L246.952 196.362C246.409 196.676 245.576 196.712 245.105 196.434Z" fill="#06033E"/>
<path d="M236.052 191.22L230.162 187.816C229.691 187.538 229.751 187.067 230.294 186.753L236.125 183.386C236.668 183.072 237.501 183.036 237.971 183.313L243.862 186.717C244.333 186.995 244.272 187.466 243.729 187.779L237.899 191.147C237.356 191.461 236.523 191.497 236.052 191.22Z" fill="#06033E"/>
<path d="M227.011 185.993L221.12 182.589C220.65 182.311 220.71 181.841 221.253 181.527L227.083 178.159C227.626 177.845 228.459 177.809 228.93 178.087L234.82 181.491C235.291 181.768 235.231 182.239 234.688 182.553L228.858 185.921C228.314 186.234 227.482 186.271 227.011 185.993Z" fill="#06033E"/>
<path d="M236.317 180.622L230.427 177.218C229.956 176.94 230.016 176.469 230.56 176.155L232.491 175.045C233.034 174.731 233.867 174.695 234.338 174.973L240.228 178.376C240.699 178.654 240.639 179.125 240.095 179.439L238.164 180.549C237.621 180.863 236.788 180.899 236.317 180.622Z" fill="#06033E"/>
<path d="M248.11 187.442L242.22 184.038C241.749 183.76 241.809 183.289 242.353 182.975L244.284 181.865C244.827 181.551 245.66 181.515 246.131 181.792L252.021 185.196C252.492 185.474 252.432 185.945 251.888 186.259L249.957 187.369C249.414 187.683 248.581 187.719 248.11 187.442Z" fill="#06033E"/>
<path d="M257.128 192.644L251.237 189.24C250.766 188.962 250.827 188.492 251.37 188.178L253.301 187.067C253.844 186.753 254.677 186.717 255.148 186.995L261.039 190.399C261.509 190.676 261.449 191.147 260.906 191.461L258.974 192.572C258.431 192.885 257.598 192.922 257.128 192.644Z" fill="#06033E"/>
<path d="M266.132 197.846L260.241 194.442C259.771 194.165 259.831 193.694 260.374 193.38L262.306 192.27C262.849 191.956 263.682 191.92 264.152 192.197L270.043 195.601C270.514 195.879 270.453 196.35 269.91 196.663L267.979 197.774C267.436 198.088 266.603 198.124 266.132 197.846Z" fill="#06033E"/>
<path d="M275.137 203.037L269.246 199.633C268.775 199.355 268.836 198.884 269.379 198.571L271.31 197.46C271.854 197.146 272.686 197.11 273.157 197.388L279.048 200.792C279.518 201.069 279.458 201.54 278.915 201.854L276.984 202.964C276.44 203.278 275.607 203.314 275.137 203.037Z" fill="#06033E"/>
<path d="M325.423 232.067L319.533 228.663C319.062 228.385 319.122 227.914 319.666 227.601L321.597 226.49C322.14 226.176 322.973 226.14 323.444 226.418L329.334 229.822C329.805 230.099 329.744 230.57 329.201 230.884L327.27 231.994C326.727 232.308 325.894 232.344 325.423 232.067Z" fill="#06033E"/>
<path d="M334.428 237.269L328.538 233.865C328.067 233.588 328.127 233.117 328.67 232.803L330.602 231.693C331.145 231.379 331.978 231.342 332.449 231.62L338.339 235.024C338.81 235.302 338.749 235.772 338.206 236.086L336.275 237.197C335.732 237.511 334.899 237.547 334.428 237.269Z" fill="#06033E"/>
<path d="M343.433 242.472L337.542 239.068C337.072 238.79 337.132 238.319 337.675 238.005L339.606 236.895C340.15 236.581 340.982 236.545 341.453 236.823L347.344 240.226C347.814 240.504 347.754 240.975 347.211 241.289L345.28 242.399C344.736 242.713 343.904 242.749 343.433 242.472Z" fill="#06033E"/>
<path d="M352.437 247.674L346.547 244.27C346.076 243.993 346.136 243.522 346.679 243.208L348.611 242.097C349.154 241.784 349.987 241.747 350.458 242.025L356.348 245.429C356.819 245.707 356.758 246.177 356.215 246.491L354.284 247.602C353.741 247.915 352.908 247.952 352.437 247.674Z" fill="#06033E"/>
<path d="M263.235 206.911L257.345 203.508C256.874 203.23 256.935 202.759 257.478 202.445L263.308 199.078C263.851 198.764 264.684 198.728 265.155 199.005L271.045 202.409C271.516 202.687 271.456 203.158 270.912 203.471L265.082 206.839C264.539 207.153 263.706 207.189 263.235 206.911Z" fill="#06033E"/>
<path d="M272.324 212.162L266.434 208.758C265.963 208.481 266.023 208.01 266.567 207.696L272.397 204.328C272.94 204.015 273.773 203.978 274.244 204.256L280.134 207.66C280.605 207.937 280.544 208.408 280.001 208.722L274.171 212.09C273.628 212.404 272.795 212.44 272.324 212.162Z" fill="#06033E"/>
<path d="M281.414 217.401L275.523 213.997C275.053 213.719 275.113 213.249 275.656 212.935L281.486 209.567C282.029 209.253 282.862 209.217 283.333 209.495L289.224 212.899C289.694 213.176 289.634 213.647 289.091 213.961L283.261 217.328C282.717 217.642 281.885 217.679 281.414 217.401Z" fill="#06033E"/>
<path d="M290.503 222.652L284.612 219.248C284.142 218.97 284.202 218.499 284.745 218.185L290.575 214.818C291.118 214.504 291.951 214.468 292.422 214.745L298.313 218.149C298.783 218.427 298.723 218.898 298.18 219.211L292.35 222.579C291.806 222.893 290.974 222.929 290.503 222.652Z" fill="#06033E"/>
<path d="M299.592 227.902L293.702 224.498C293.231 224.221 293.291 223.75 293.835 223.436L299.665 220.068C300.208 219.755 301.041 219.718 301.512 219.996L307.402 223.4C307.873 223.678 307.812 224.148 307.269 224.462L301.439 227.83C300.896 228.144 300.063 228.18 299.592 227.902Z" fill="#06033E"/>
<path d="M308.681 233.153L302.791 229.749C302.32 229.472 302.38 229.001 302.923 228.687L308.754 225.319C309.297 225.005 310.13 224.969 310.6 225.247L316.491 228.651C316.962 228.928 316.901 229.399 316.358 229.713L310.528 233.081C309.985 233.394 309.152 233.431 308.681 233.153Z" fill="#06033E"/>
<path d="M317.77 238.392L311.88 234.988C311.409 234.71 311.469 234.239 312.012 233.926L317.843 230.558C318.386 230.244 319.219 230.208 319.689 230.485L325.58 233.889C326.051 234.167 325.99 234.638 325.447 234.952L319.617 238.319C319.074 238.633 318.241 238.669 317.77 238.392Z" fill="#06033E"/>
<path d="M326.86 243.642L320.969 240.239C320.498 239.961 320.559 239.49 321.102 239.176L326.932 235.809C327.475 235.495 328.308 235.459 328.779 235.736L334.669 239.14C335.14 239.418 335.08 239.888 334.537 240.202L328.706 243.57C328.163 243.884 327.33 243.92 326.86 243.642Z" fill="#06033E"/>
<path d="M335.948 248.893L330.058 245.489C329.587 245.212 329.648 244.741 330.191 244.427L336.021 241.059C336.564 240.746 337.397 240.709 337.868 240.987L343.758 244.391C344.229 244.668 344.169 245.139 343.625 245.453L337.795 248.821C337.252 249.135 336.419 249.171 335.948 248.893Z" fill="#06033E"/>
<path d="M211.271 207.551L193.937 197.545C193.467 197.267 193.527 196.796 194.07 196.482L199.9 193.115C200.443 192.801 201.276 192.765 201.747 193.042L219.081 203.049C219.551 203.326 219.491 203.797 218.948 204.111L213.118 207.479C212.574 207.793 211.742 207.829 211.271 207.551Z" fill="#06033E"/>
<path d="M322.937 272.033L305.603 262.026C305.133 261.748 305.193 261.278 305.736 260.964L311.566 257.596C312.109 257.282 312.942 257.246 313.413 257.524L330.746 267.53C331.217 267.808 331.157 268.279 330.614 268.593L324.784 271.96C324.24 272.274 323.407 272.31 322.937 272.033Z" fill="#06033E"/>
<path d="M286.58 262.63L280.689 259.226C280.218 258.948 280.279 258.477 280.822 258.163L287.775 254.156C288.318 253.842 289.151 253.806 289.621 254.084L295.512 257.488C295.983 257.765 295.922 258.236 295.379 258.55L288.426 262.557C287.883 262.871 287.05 262.907 286.58 262.63Z" fill="#06033E"/>
<path d="M220.577 224.523L211.162 219.091C210.691 218.813 210.752 218.342 211.295 218.029L218.248 214.021C218.791 213.707 219.624 213.671 220.094 213.949L229.51 219.38C229.98 219.658 229.92 220.129 229.377 220.443L222.424 224.45C221.881 224.764 221.048 224.8 220.577 224.523Z" fill="#06033E"/>
<path d="M277.829 257.572L268.414 252.14C267.943 251.863 268.003 251.392 268.546 251.078L275.499 247.071C276.042 246.757 276.875 246.721 277.346 246.998L286.761 252.43C287.232 252.708 287.171 253.178 286.628 253.492L279.676 257.5C279.132 257.813 278.299 257.85 277.829 257.572Z" fill="#06033E"/>
<path d="M233.687 232.091L224.272 226.659C223.801 226.381 223.861 225.911 224.404 225.597L231.357 221.589C231.9 221.276 232.733 221.239 233.204 221.517L242.619 226.949C243.09 227.226 243.029 227.697 242.486 228.011L235.533 232.018C234.99 232.332 234.157 232.368 233.687 232.091Z" fill="#06033E"/>
<path d="M233.264 221.541L274.183 245.175C274.69 245.465 274.69 245.948 274.183 246.238L267.098 250.33C266.591 250.619 265.77 250.619 265.263 250.33L224.344 226.707L233.264 221.553V221.541Z" fill="#06033E"/>
<path d="M311.988 272.153L318.543 275.944C318.929 276.173 318.881 276.559 318.434 276.813L315.598 278.454C315.151 278.708 314.475 278.744 314.089 278.515L307.534 274.724C307.148 274.495 307.196 274.109 307.643 273.855L310.48 272.214C310.926 271.96 311.602 271.924 311.988 272.153Z" fill="#06033E"/>
<path d="M302.827 266.854L309.381 270.645C309.767 270.874 309.719 271.26 309.272 271.514L306.436 273.155C305.989 273.409 305.313 273.445 304.927 273.216L298.373 269.425C297.986 269.196 298.035 268.81 298.481 268.556L301.318 266.915C301.764 266.661 302.44 266.625 302.827 266.854Z" fill="#06033E"/>
<path d="M293.738 261.604L300.292 265.394C300.679 265.623 300.63 266.009 300.184 266.263L297.347 267.905C296.9 268.158 296.224 268.194 295.838 267.965L289.284 264.175C288.898 263.945 288.946 263.559 289.392 263.306L292.229 261.664C292.676 261.41 293.352 261.374 293.738 261.604Z" fill="#06033E"/>
<path d="M307.848 263.957L314.403 267.748C314.789 267.977 314.741 268.363 314.294 268.617L311.458 270.258C311.011 270.512 310.335 270.548 309.949 270.319L303.394 266.528C303.008 266.299 303.056 265.913 303.503 265.659L306.34 264.018C306.786 263.764 307.462 263.728 307.848 263.957Z" fill="#06033E"/>
</g>
<path d="M404.039 253.347L230.391 153.088C227.663 151.507 226.238 147.669 227.204 144.506L266.482 17.0038C267.46 13.8413 270.453 12.5618 273.193 14.131L446.842 114.39C449.57 115.971 450.994 119.81 450.028 122.972L410.762 250.474C409.785 253.637 406.791 254.916 404.051 253.347H404.039Z" fill="url(#paint7_linear_435_50)"/>
<path d="M402.397 248.881L233.976 151.555C231.368 150.047 230.004 146.365 230.934 143.347L268.473 21.4579C269.403 18.4282 272.276 17.197 274.895 18.7058L443.329 116.032C445.936 117.54 447.3 121.222 446.371 124.24L408.831 246.129C407.902 249.159 405.029 250.39 402.409 248.881H402.397Z" fill="url(#paint8_linear_435_50)"/>
<path opacity="0.4" d="M402.397 248.881L233.976 151.555C231.368 150.047 230.004 146.365 230.934 143.347L268.473 21.4579C269.403 18.4282 272.276 17.197 274.895 18.7058L443.329 116.032C445.936 117.54 447.3 121.222 446.371 124.24L408.831 246.129C407.902 249.159 405.029 250.39 402.409 248.881H402.397Z" fill="#06033E"/>
<path opacity="0.4" d="M402.397 248.881L233.976 151.555C231.368 150.047 230.004 146.365 230.934 143.347L268.473 21.4579C269.403 18.4282 272.276 17.197 274.895 18.7058L443.329 116.032C445.936 117.54 447.3 121.222 446.371 124.24L408.831 246.129C407.902 249.159 405.029 250.39 402.41 248.881H402.397Z" fill="#06033E"/>
<path opacity="0.5" d="M393.357 211.631L279.338 145.798C277.539 144.76 276.61 142.237 277.249 140.161L303.032 56.4387C303.672 54.3625 305.64 53.5176 307.438 54.5556L421.457 120.389C423.256 121.427 424.185 123.95 423.546 126.026L397.763 209.748C397.123 211.824 395.156 212.669 393.357 211.631Z" fill="#06033E"/>
<path d="M377.954 213.647L263.935 147.814C262.136 146.775 261.207 144.253 261.847 142.177L287.63 58.4545C288.269 56.3783 290.237 55.5334 292.035 56.5714L406.055 122.405C407.853 123.443 408.783 125.966 408.143 128.042L382.36 211.764C381.72 213.84 379.753 214.685 377.954 213.647Z" fill="url(#paint9_radial_435_50)"/>
<g opacity="0.5">
<path d="M377.954 213.647L263.935 147.814C262.136 146.775 261.207 144.253 261.847 142.177L287.63 58.4545C288.269 56.3783 290.237 55.5334 292.035 56.5714L406.055 122.405C407.853 123.443 408.783 125.966 408.143 128.042L382.36 211.764C381.72 213.84 379.753 214.685 377.954 213.647Z" fill="#06033E"/>
</g>
<path d="M406.043 122.405L292.023 56.5715C290.901 55.9196 289.706 56.0162 288.813 56.6801C289.356 56.668 289.911 56.7887 290.454 57.1026L404.474 122.936C406.272 123.974 407.202 126.497 406.562 128.573L380.779 212.295C380.538 213.068 380.115 213.671 379.584 214.069C380.803 214.033 381.902 213.2 382.336 211.764L408.119 128.042C408.759 125.966 407.817 123.443 406.031 122.405H406.043Z" fill="white"/>
<path opacity="0.4" d="M234.145 282.015C232.576 282.015 231.067 281.689 229.92 281.025L184.233 254.651C183.026 253.951 182.362 252.949 182.362 251.838C182.362 250.547 183.279 249.267 184.884 248.35L208.398 234.771C211.271 233.117 215.484 232.948 218.006 234.396L263.682 260.771C264.889 261.471 265.553 262.473 265.565 263.583C265.565 264.875 264.647 266.154 263.042 267.072L239.528 280.651C237.971 281.556 236.016 282.015 234.145 282.015ZM213.794 234.746C212.14 234.746 210.39 235.145 209.05 235.917L185.536 249.497C184.353 250.185 183.677 251.042 183.677 251.851C183.677 252.659 184.341 253.202 184.897 253.516L230.584 279.891C232.66 281.086 236.45 280.917 238.864 279.516L262.378 265.937C263.561 265.249 264.237 264.404 264.237 263.583C264.237 262.762 263.573 262.231 263.018 261.917L217.342 235.543C216.413 235.012 215.146 234.746 213.794 234.746Z" fill="#06033E"/>
<path d="M319.798 100.509L312.749 96.4408C312.097 96.0666 311.747 95.1613 311.964 94.4129C312.181 93.6766 312.894 93.3749 313.545 93.7491L320.595 97.8169C321.246 98.1911 321.596 99.0964 321.379 99.8447C321.162 100.581 320.45 100.883 319.798 100.509Z" fill="white"/>
<path d="M336.588 110.201L326.195 104.202C325.544 103.828 325.194 102.923 325.411 102.174C325.628 101.438 326.34 101.136 326.992 101.511L337.385 107.51C338.037 107.884 338.387 108.789 338.17 109.537C337.952 110.274 337.24 110.576 336.588 110.201Z" fill="white"/>
<path d="M305.578 131.88L298.529 127.812C297.877 127.438 297.527 126.533 297.744 125.785C297.962 125.048 298.674 124.747 299.326 125.121L306.375 129.189C307.027 129.563 307.377 130.468 307.16 131.216C306.942 131.953 306.23 132.254 305.578 131.88Z" fill="white"/>
<path d="M320.547 140.523L310.154 134.524C309.502 134.15 309.152 133.244 309.369 132.496C309.586 131.76 310.299 131.458 310.95 131.832L321.343 137.831C321.995 138.205 322.345 139.111 322.128 139.859C321.911 140.595 321.198 140.897 320.547 140.523Z" fill="white"/>
<path d="M298.687 94.9079L294.281 92.3609C293.629 91.9868 293.279 91.0815 293.496 90.3331C293.714 89.5968 294.426 89.295 295.078 89.6692L299.483 92.2161C300.135 92.5903 300.485 93.4956 300.268 94.244C300.051 94.9803 299.338 95.282 298.687 94.9079Z" fill="white"/>
<path d="M311.928 109.163L298.469 101.39C297.817 101.016 297.467 100.11 297.684 99.3619C297.901 98.6256 298.614 98.3238 299.265 98.698L312.724 106.472C313.376 106.846 313.726 107.751 313.509 108.499C313.292 109.236 312.579 109.537 311.928 109.163Z" fill="white"/>
<path d="M299.519 115.187L295.114 112.64C294.462 112.265 294.112 111.36 294.329 110.612C294.546 109.875 295.258 109.574 295.91 109.948L300.316 112.495C300.968 112.869 301.318 113.774 301.101 114.523C300.883 115.259 300.171 115.561 299.519 115.187Z" fill="white"/>
<path d="M322.176 154.658L310.419 147.862C309.767 147.488 309.417 146.582 309.634 145.834C309.852 145.098 310.564 144.796 311.215 145.17L322.972 151.966C323.624 152.34 323.974 153.245 323.757 153.994C323.54 154.73 322.827 155.032 322.176 154.658Z" fill="white"/>
<path d="M294.582 125.543L291.758 123.914C291.106 123.539 290.756 122.634 290.973 121.886C291.19 121.149 291.902 120.848 292.554 121.222L295.379 122.851C296.031 123.226 296.381 124.131 296.163 124.879C295.946 125.616 295.234 125.917 294.582 125.543Z" fill="white"/>
<path d="M291.915 137.191L288.402 135.163C287.75 134.789 287.4 133.884 287.617 133.136C287.835 132.399 288.547 132.098 289.199 132.472L292.711 134.5C293.363 134.874 293.713 135.779 293.496 136.527C293.279 137.264 292.566 137.566 291.915 137.191Z" fill="white"/>
<path d="M305.566 145.074L296.308 139.726C295.656 139.352 295.306 138.447 295.524 137.698C295.741 136.962 296.453 136.66 297.105 137.034L306.363 142.382C307.015 142.756 307.365 143.661 307.148 144.41C306.93 145.146 306.218 145.448 305.566 145.074Z" fill="white"/>
<path d="M293.375 144.639L286.724 140.8C286.072 140.426 285.722 139.521 285.94 138.773C286.157 138.036 286.869 137.735 287.521 138.109L294.172 141.947C294.824 142.321 295.174 143.227 294.956 143.975C294.739 144.711 294.027 145.013 293.375 144.639Z" fill="white"/>
<path d="M332.267 160.512L327.994 158.049C327.342 157.675 326.992 156.77 327.209 156.022C327.427 155.285 328.139 154.984 328.791 155.358L333.064 157.82C333.715 158.194 334.065 159.1 333.848 159.848C333.631 160.584 332.919 160.886 332.267 160.512Z" fill="white"/>
<path d="M315.899 124.65L304.143 117.854C303.491 117.48 303.141 116.575 303.358 115.826C303.575 115.09 304.287 114.788 304.939 115.162L316.696 121.958C317.348 122.332 317.698 123.238 317.481 123.986C317.263 124.722 316.551 125.024 315.899 124.65Z" fill="white"/>
<path d="M317.3 118.856L296.804 107.027C296.152 106.653 295.802 105.747 296.019 104.999C296.236 104.263 296.948 103.961 297.6 104.335L318.096 116.164C318.748 116.538 319.098 117.444 318.881 118.192C318.664 118.928 317.951 119.23 317.3 118.856Z" fill="#E8975B"/>
<path d="M305.205 125.072L293.448 118.277C292.796 117.902 292.446 116.997 292.663 116.249C292.881 115.512 293.593 115.211 294.245 115.585L306.001 122.381C306.653 122.755 307.003 123.66 306.786 124.409C306.569 125.145 305.857 125.447 305.205 125.072Z" fill="#E8975B"/>
<path d="M324.819 129.804L320.546 127.342C319.895 126.968 319.545 126.062 319.762 125.314C319.979 124.578 320.691 124.276 321.343 124.65L325.616 127.112C326.268 127.487 326.618 128.392 326.401 129.14C326.183 129.877 325.471 130.178 324.819 129.804Z" fill="#E8975B"/>
<path d="M368.298 128.5L342.998 113.895C342.346 113.521 341.996 112.616 342.213 111.867C342.431 111.131 343.143 110.829 343.795 111.203L369.095 125.809C369.747 126.183 370.097 127.088 369.879 127.837C369.662 128.573 368.95 128.875 368.298 128.5Z" fill="#E8975B"/>
<path d="M304.215 137.698L290.08 129.539C289.429 129.164 289.078 128.259 289.296 127.511C289.513 126.774 290.225 126.473 290.877 126.847L305.012 135.007C305.664 135.381 306.014 136.286 305.796 137.034C305.579 137.771 304.867 138.073 304.215 137.698Z" fill="#6366F1"/>
<path d="M306.352 92.7351L295.959 86.736C295.307 86.3618 294.957 85.4565 295.174 84.7081C295.391 83.9718 296.104 83.6701 296.755 84.0443L307.148 90.0434C307.8 90.4176 308.15 91.3229 307.933 92.0713C307.716 92.8076 307.003 93.1093 306.352 92.7351Z" fill="#6366F1"/>
<path d="M291.203 149.974L279.168 143.021C278.517 142.647 278.167 141.742 278.384 140.994C278.601 140.257 279.313 139.956 279.965 140.33L292 147.282C292.651 147.657 293.001 148.562 292.784 149.31C292.567 150.047 291.855 150.348 291.203 149.974Z" fill="#E8975B"/>
<path d="M371.134 115.488L365.98 112.519C365.497 112.241 365.244 111.577 365.413 111.034C365.57 110.491 366.089 110.274 366.572 110.551L371.726 113.521C372.209 113.798 372.462 114.462 372.293 115.005C372.136 115.549 371.617 115.766 371.134 115.488Z" fill="white"/>
<path d="M380.96 121.162L375.806 118.192C375.323 117.915 375.07 117.251 375.239 116.707C375.396 116.164 375.915 115.947 376.398 116.225L381.552 119.194C382.035 119.472 382.288 120.136 382.119 120.679C381.962 121.222 381.443 121.439 380.96 121.162Z" fill="white"/>
<path d="M390.785 126.835L385.631 123.865C385.148 123.588 384.895 122.924 385.064 122.381C385.221 121.837 385.74 121.62 386.223 121.898L391.377 124.867C391.86 125.145 392.113 125.809 391.944 126.352C391.787 126.895 391.268 127.112 390.785 126.835Z" fill="white"/>
<path d="M395.626 129.623L395.469 129.526C394.987 129.249 394.733 128.585 394.902 128.042C395.059 127.499 395.578 127.281 396.061 127.559L396.218 127.656C396.701 127.933 396.954 128.597 396.785 129.14C396.628 129.683 396.109 129.901 395.626 129.623Z" fill="#6366F1"/>
<path d="M129.685 189.928C126.426 189.928 123.167 189.083 120.258 187.405L85.7479 167.477C84.2511 166.608 83.3579 165.063 83.3579 163.336C83.3579 161.61 84.2511 160.065 85.7479 159.196L120.258 139.268C126.076 135.912 133.306 135.912 139.124 139.268L173.634 159.196C175.131 160.065 176.024 161.61 176.024 163.336C176.024 165.063 175.131 166.608 173.634 167.477L139.124 187.405C136.215 189.083 132.956 189.928 129.697 189.928H129.685ZM121.38 185.462C126.511 188.419 132.872 188.419 138.002 185.462L172.512 165.533C173.308 165.075 173.779 164.254 173.779 163.336C173.779 162.419 173.308 161.598 172.512 161.14L138.002 141.211C132.872 138.254 126.511 138.254 121.38 141.211L86.8705 161.14C86.0738 161.598 85.603 162.419 85.603 163.336C85.603 164.254 86.0738 165.075 86.8705 165.533L121.38 185.462Z" fill="url(#paint10_linear_435_50)"/>
<path opacity="0.6" d="M146.283 173.488C137.024 178.835 122.008 178.835 112.75 173.488C103.492 168.141 103.492 159.474 112.75 154.126C122.008 148.779 137.024 148.779 146.283 154.126C155.541 159.474 155.541 168.141 146.283 173.488Z" fill="#020230"/>
<path d="M164.654 66.2521H97.1309L103.408 139.364C103.408 143.42 106.087 147.488 111.459 150.578C122.19 156.77 139.595 156.77 150.326 150.578C155.698 147.476 158.377 143.42 158.377 139.352L164.654 66.2401V66.2521Z" fill="url(#paint11_linear_435_50)"/>
<path opacity="0.4" d="M164.654 66.2521H97.1309L98.1689 78.2745C99.714 80.2541 101.802 82.1612 104.422 83.8994C117.325 92.4575 138.618 94.1112 153.139 87.9431L150.894 141.416C150.797 143.746 149.988 146.015 148.479 147.789C146.295 150.36 142.082 153.39 133.983 155.104C139.958 154.718 145.751 153.209 150.326 150.566C155.698 147.463 158.377 143.408 158.377 139.34L163.411 80.7128L164.654 66.2401V66.2521Z" fill="#06033E"/>
<path opacity="0.4" d="M130.892 85.7462C149.539 85.7462 164.654 77.0184 164.654 66.2521C164.654 55.4858 149.539 46.758 130.892 46.758C112.246 46.758 97.1309 55.4858 97.1309 66.2521C97.1309 77.0184 112.246 85.7462 130.892 85.7462Z" fill="#06033E"/>
<path opacity="0.4" d="M130.893 76.1742C146.952 76.1742 159.971 68.6569 159.971 59.3839C159.971 50.1109 146.952 42.5936 130.893 42.5936C114.833 42.5936 101.814 50.1109 101.814 59.3839C101.814 68.6569 114.833 76.1742 130.893 76.1742Z" fill="#06033E"/>
<path d="M166.658 65.3348V65.2744C166.658 65.2382 166.658 65.202 166.658 65.1778L166.006 58.6355L165.982 58.708C165.692 53.759 162.276 48.8462 155.734 45.0681C142.022 37.1498 119.799 37.1498 106.087 45.0681C99.3759 48.9428 95.9599 54.0004 95.8151 59.0822L95.1995 64.8881C95.1874 65.0451 95.1633 65.1899 95.1512 65.3468V65.4434C94.777 70.9959 98.2654 76.6208 105.604 80.8576C119.582 88.9329 142.251 88.9329 156.229 80.8576C163.616 76.5967 167.104 70.9235 166.682 65.3348H166.658Z" fill="url(#paint12_linear_435_50)"/>
<path d="M130.893 76.1742C146.952 76.1742 159.971 68.6569 159.971 59.3839C159.971 50.1109 146.952 42.5936 130.893 42.5936C114.833 42.5936 101.814 50.1109 101.814 59.3839C101.814 68.6569 114.833 76.1742 130.893 76.1742Z" fill="url(#paint13_linear_435_50)"/>
<path d="M129.516 76.1742C145.575 76.1742 158.594 68.6569 158.594 59.3839C158.594 50.1109 145.575 42.5936 129.516 42.5936C113.457 42.5936 100.438 50.1109 100.438 59.3839C100.438 68.6569 113.457 76.1742 129.516 76.1742Z" fill="url(#paint14_linear_435_50)"/>
<path opacity="0.4" d="M113.776 50.0171C125.135 43.4627 143.543 43.4627 154.901 50.0171C155.046 50.1016 155.167 50.1861 155.312 50.2826C154.213 49.3049 152.934 48.3755 151.461 47.5185C140.102 40.9641 121.695 40.9641 110.336 47.5185C99.1226 53.9883 99.0019 64.4295 109.926 71.008C102.635 64.5019 103.903 55.7265 113.776 50.0292V50.0171Z" fill="#06033E"/>
<path d="M110.324 50.4275C121.683 43.8731 140.09 43.8731 151.449 50.4275C156.482 53.3365 159.283 57.0422 159.85 60.8445C160.562 56.0766 157.762 51.1638 151.449 47.5185C140.09 40.9641 121.683 40.9641 110.324 47.5185C103.999 51.1638 101.211 56.0766 101.923 60.8445C102.49 57.0422 105.291 53.3365 110.324 50.4275Z" fill="url(#paint15_linear_435_50)"/>
<path d="M155.927 45.225C142.238 37.1619 119.932 36.9687 106.099 44.7905C92.2659 52.6123 92.1572 65.4917 105.845 73.5549C119.533 81.6181 141.84 81.8112 155.673 73.9894C169.506 66.1676 169.615 53.2882 155.927 45.225ZM151.448 71.2615C147.658 73.4462 143.071 74.8947 138.231 75.619L137.7 73.8808C137.483 73.1807 136.843 72.6979 136.106 72.6979H125.665C124.929 72.6979 124.289 73.1807 124.072 73.8808L123.541 75.619C118.701 74.8947 114.114 73.4462 110.324 71.2615C98.9651 64.7071 98.9651 54.0728 110.324 47.5185C121.682 40.9641 140.09 40.9641 151.448 47.5185C162.807 54.0728 162.807 64.7071 151.448 71.2615Z" fill="url(#paint16_linear_435_50)"/>
<path d="M151.461 46.2752C140.103 39.7208 121.695 39.7208 110.336 46.2752C104.386 49.7153 101.561 54.266 101.851 58.7683C102.116 54.6764 104.941 50.6327 110.336 47.5185C121.695 40.9641 140.103 40.9641 151.461 47.5185C156.869 50.6448 159.693 54.6764 159.959 58.7683C160.249 54.266 157.424 49.7153 151.461 46.2752Z" fill="white"/>
<path d="M155.674 72.7461C141.841 80.5679 119.534 80.3748 105.846 72.3116C99.3279 68.4731 95.9482 63.5483 95.6826 58.5873C95.417 63.9587 98.7968 69.3905 105.846 73.5549C119.534 81.6181 141.841 81.8112 155.674 73.9894C162.916 69.8854 166.393 64.4053 166.091 58.9494C165.837 63.9828 162.373 68.968 155.674 72.7461Z" fill="white"/>
<path d="M134.019 74.8344H127.766C127.333 74.8344 126.981 75.1857 126.981 75.619V75.7397C126.981 76.173 127.333 76.5243 127.766 76.5243H134.019C134.452 76.5243 134.803 76.173 134.803 75.7397V75.619C134.803 75.1857 134.452 74.8344 134.019 74.8344Z" fill="#0C0A78"/>
<path d="M134.018 74.8344H127.778C127.343 74.8344 126.993 75.1844 126.993 75.619V75.7276C126.993 75.8 127.017 75.8725 127.042 75.9328C127.138 75.6069 127.428 75.3534 127.79 75.3534H134.03C134.393 75.3534 134.682 75.5948 134.779 75.9328C134.803 75.8604 134.827 75.8 134.827 75.7276V75.619C134.827 75.1844 134.477 74.8344 134.043 74.8344H134.018Z" fill="url(#paint17_linear_435_50)"/>
<path d="M131.846 131.856C131.086 134.741 128.128 136.443 125.244 135.683C122.359 134.922 120.657 131.965 121.417 129.08C122.178 126.195 124.893 125.386 127.778 126.147C130.663 126.907 132.607 128.971 131.846 131.844V131.856Z" fill="#E8975B"/>
<path d="M136.095 126.171C135.008 127.233 133.62 127.1 132.703 126.147C131.785 125.205 131.677 123.817 132.763 122.755C133.849 121.693 135.913 121.174 136.831 122.115C137.748 123.057 137.181 125.109 136.095 126.171Z" fill="#E8975B"/>
<path d="M130.458 121.656C130.192 123.153 128.985 123.853 127.681 123.612C126.378 123.383 125.484 122.308 125.75 120.811C126.016 119.315 127.392 117.685 128.695 117.927C129.999 118.156 130.723 120.16 130.458 121.656Z" fill="#E8975B"/>
<path d="M123.505 120.968C124.084 122.369 123.433 123.612 122.213 124.107C120.994 124.614 119.667 124.191 119.087 122.779C118.508 121.379 118.797 119.266 120.017 118.759C121.236 118.253 122.926 119.556 123.505 120.956V120.968Z" fill="#E8975B"/>
<path opacity="0.5" d="M133.101 75.6793C133.101 75.6793 151.98 69.3543 144.339 47.6633C136.698 25.9723 121.815 19.3576 127.802 2C127.802 2 118.411 16.0502 127.187 35.0495C135.962 54.0487 137.893 51.876 137.785 60.9652C137.664 71.7684 128.937 75.6672 128.937 75.6672H133.089L133.101 75.6793Z" fill="white"/>
<defs>
<linearGradient id="paint0_linear_435_50" x1="490.912" y1="304.116" x2="530.287" y2="304.116" gradientUnits="userSpaceOnUse">
<stop stop-color="#6366F1"/>
<stop offset="1" stop-color="#6366F1"/>
</linearGradient>
<linearGradient id="paint1_linear_435_50" x1="437.016" y1="250.161" x2="503.139" y2="250.161" gradientUnits="userSpaceOnUse">
<stop stop-color="#6366F1"/>
<stop offset="1" stop-color="#6366F1"/>
</linearGradient>
<linearGradient id="paint2_linear_435_50" x1="1.00012" y1="272.31" x2="67.1232" y2="272.31" gradientUnits="userSpaceOnUse">
<stop stop-color="#6366F1"/>
<stop offset="1" stop-color="#6366F1"/>
</linearGradient>
<linearGradient id="paint3_linear_435_50" x1="77.9744" y1="268.073" x2="430.872" y2="268.073" gradientUnits="userSpaceOnUse">
<stop stop-color="#6366F1"/>
<stop offset="1" stop-color="#6366F1"/>
</linearGradient>
<linearGradient id="paint4_linear_435_50" x1="329.044" y1="-94.721" x2="569.677" y2="128.032" gradientUnits="userSpaceOnUse">
<stop stop-color="#2DD4BF"/>
<stop offset="0.5" stop-color="#3B82F6"/>
<stop offset="1" stop-color="#9333EA"/>
</linearGradient>
<linearGradient id="paint5_linear_435_50" x1="238.206" y1="80.6933" x2="386.817" y2="339.794" gradientUnits="userSpaceOnUse">
<stop stop-color="#2DD4BF"/>
<stop offset="0.5" stop-color="#3B82F6"/>
<stop offset="1" stop-color="#9333EA"/>
</linearGradient>
<radialGradient id="paint6_radial_435_50" cx="0" cy="0" r="1" gradientUnits="userSpaceOnUse" gradientTransform="translate(135.165 164.097) scale(264.299 264.299)">
<stop stop-color="#6366F1"/>
<stop offset="0.47" stop-color="#6366F1"/>
<stop offset="0.59" stop-color="#4D5BCE"/>
<stop offset="0.73" stop-color="#6366F1"/>
<stop offset="1" stop-color="#6366F1"/>
</radialGradient>
<linearGradient id="paint7_linear_435_50" x1="326.087" y1="-93.3273" x2="565.988" y2="129.493" gradientUnits="userSpaceOnUse">
<stop stop-color="#2DD4BF"/>
<stop offset="0.5" stop-color="#3B82F6"/>
<stop offset="1" stop-color="#9333EA"/>
</linearGradient>
<linearGradient id="paint8_linear_435_50" x1="230.632" y1="133.787" x2="446.661" y2="133.787" gradientUnits="userSpaceOnUse">
<stop stop-color="#3919BB"/>
<stop offset="1" stop-color="#6507FA"/>
</linearGradient>
<radialGradient id="paint9_radial_435_50" cx="0" cy="0" r="1" gradientUnits="userSpaceOnUse" gradientTransform="translate(102.587 5.45221) scale(419.878 419.878)">
<stop stop-color="#E39A65"/>
<stop offset="0.47" stop-color="#A92FFB"/>
<stop offset="0.59" stop-color="#881BFA"/>
<stop offset="0.73" stop-color="#6507FA"/>
<stop offset="1" stop-color="#3919BB"/>
</radialGradient>
<linearGradient id="paint10_linear_435_50" x1="83.3458" y1="163.336" x2="176.024" y2="163.336" gradientUnits="userSpaceOnUse">
<stop stop-color="#6366F1"/>
<stop offset="1" stop-color="#6366F1"/>
</linearGradient>
<linearGradient id="paint11_linear_435_50" x1="127.106" y1="26.739" x2="212.804" y2="91.7703" gradientUnits="userSpaceOnUse">
<stop stop-color="#2DD4BF"/>
<stop offset="0.5" stop-color="#3B82F6"/>
<stop offset="1" stop-color="#9333EA"/>
</linearGradient>
<linearGradient id="paint12_linear_435_50" x1="126.905" y1="17.9167" x2="171.034" y2="84.0318" gradientUnits="userSpaceOnUse">
<stop stop-color="#2DD4BF"/>
<stop offset="0.5" stop-color="#3B82F6"/>
<stop offset="1" stop-color="#9333EA"/>
</linearGradient>
<linearGradient id="paint13_linear_435_50" x1="101.814" y1="59.3839" x2="159.971" y2="59.3839" gradientUnits="userSpaceOnUse">
<stop stop-color="#6366F1"/>
<stop offset="1" stop-color="#C2C3FA"/>
</linearGradient>
<linearGradient id="paint14_linear_435_50" x1="126.255" y1="27.6865" x2="155.338" y2="78.0544" gradientUnits="userSpaceOnUse">
<stop stop-color="#2DD4BF"/>
<stop offset="0.5" stop-color="#3B82F6"/>
<stop offset="1" stop-color="#9333EA"/>
</linearGradient>
<linearGradient id="paint15_linear_435_50" x1="101.814" y1="51.7191" x2="175.144" y2="51.7191" gradientUnits="userSpaceOnUse">
<stop stop-color="#131060"/>
<stop offset="0.19" stop-color="#140F62"/>
<stop offset="0.28" stop-color="#190F6A"/>
<stop offset="0.36" stop-color="#220F77"/>
<stop offset="0.42" stop-color="#2E0F8A"/>
<stop offset="0.48" stop-color="#3D0EA3"/>
<stop offset="0.54" stop-color="#510EC1"/>
<stop offset="0.58" stop-color="#670DE5"/>
<stop offset="0.61" stop-color="#740DF8"/>
<stop offset="0.62" stop-color="#7A14EF"/>
<stop offset="0.68" stop-color="#9B3BC2"/>
<stop offset="0.75" stop-color="#B75C9D"/>
<stop offset="0.81" stop-color="#CC7680"/>
<stop offset="0.88" stop-color="#DB886B"/>
<stop offset="0.94" stop-color="#E4935F"/>
<stop offset="1" stop-color="#E8975B"/>
</linearGradient>
<linearGradient id="paint16_linear_435_50" x1="126.934" y1="20.9886" x2="162.165" y2="82.0148" gradientUnits="userSpaceOnUse">
<stop stop-color="#2DD4BF"/>
<stop offset="0.5" stop-color="#3B82F6"/>
<stop offset="1" stop-color="#9333EA"/>
</linearGradient>
<linearGradient id="paint17_linear_435_50" x1="126.293" y1="75.3896" x2="136.433" y2="75.3896" gradientUnits="userSpaceOnUse">
<stop stop-color="#131060"/>
<stop offset="0.19" stop-color="#140F62"/>
<stop offset="0.28" stop-color="#190F6A"/>
<stop offset="0.36" stop-color="#220F77"/>
<stop offset="0.42" stop-color="#2E0F8A"/>
<stop offset="0.48" stop-color="#3D0EA3"/>
<stop offset="0.54" stop-color="#510EC1"/>
<stop offset="0.58" stop-color="#670DE5"/>
<stop offset="0.61" stop-color="#740DF8"/>
<stop offset="0.62" stop-color="#7A14EF"/>
<stop offset="0.68" stop-color="#9B3BC2"/>
<stop offset="0.75" stop-color="#B75C9D"/>
<stop offset="0.81" stop-color="#CC7680"/>
<stop offset="0.88" stop-color="#DB886B"/>
<stop offset="0.94" stop-color="#E4935F"/>
<stop offset="1" stop-color="#E8975B"/>
</linearGradient>
</defs>
</svg>
